<?xml version="1.0" encoding="UTF-8"?>
<!DOCTYPE svg PUBLIC "-//W3C//DTD SVG 1.1//EN" "http://www.w3.org/Graphics/SVG/1.1/DTD/svg11.dtd">
<svg xmlns="http://www.w3.org/2000/svg" version="1.1" width="800px" height="267px" style="shape-rendering:geometricPrecision; text-rendering:geometricPrecision; image-rendering:optimizeQuality; fill-rule:evenodd; clip-rule:evenodd" xmlns:xlink="http://www.w3.org/1999/xlink">
<g><path style="opacity:0.926" fill="#000000" d="M 185.5,20.5 C 211.842,20.1669 238.175,20.5002 264.5,21.5C 260.629,30.7403 256.629,39.907 252.5,49C 226.16,49.8332 199.827,49.6665 173.5,48.5C 178.063,39.3773 182.063,30.044 185.5,20.5 Z"/></g>
<g><path style="opacity:0.952" fill="#000000" d="M 301.5,20.5 C 323.503,20.3334 345.503,20.5 367.5,21C 375.129,22.936 377.629,27.7694 375,35.5C 362.465,74.1051 350.132,112.772 338,151.5C 298.571,152.663 259.071,152.83 219.5,152C 242.833,124.667 266.167,97.3333 289.5,70C 299.849,69.1677 310.183,69.3344 320.5,70.5C 306.353,87.1478 292.02,103.648 277.5,120C 289.742,120.821 301.909,120.654 314,119.5C 321.035,98.0614 327.868,76.5614 334.5,55C 333.339,52.4074 331.339,50.7408 328.5,50C 315.487,49.8327 302.487,49.3327 289.5,48.5C 293.701,39.2246 297.701,29.8913 301.5,20.5 Z"/></g>
<g><path style="opacity:0.956" fill="#000000" d="M 429.5,20.5 C 448.845,20.1671 468.178,20.5004 487.5,21.5C 483.629,30.7403 479.629,39.907 475.5,49C 463.5,49.3333 451.5,49.6667 439.5,50C 434.231,51.1855 431.565,54.5189 431.5,60C 432.453,61.9552 433.787,63.6218 435.5,65C 444.371,68.6205 453.037,72.6205 461.5,77C 465.423,80.6768 467.923,85.1768 469,90.5C 471.963,119.758 459.797,139.592 432.5,150C 428.205,150.912 423.872,151.579 419.5,152C 395.826,152.833 372.16,152.666 348.5,151.5C 353.167,141.5 357.833,131.5 362.5,121.5C 380.491,120.667 398.491,120.167 416.5,120C 430.157,118.374 434.657,111.208 430,98.5C 428.127,96.2911 425.96,94.4578 423.5,93C 414.443,90.0596 406.61,85.2262 400,78.5C 392.926,61.2814 394.593,44.9481 405,29.5C 412.169,23.5092 420.335,20.5092 429.5,20.5 Z"/></g>
<g><path style="opacity:0.927" fill="#000000" d="M 523.5,20.5 C 549.5,20.5 575.5,20.5 601.5,20.5C 597.992,30.1845 593.992,39.6845 589.5,49C 563.16,49.8332 536.827,49.6665 510.5,48.5C 514.847,39.1405 519.181,29.8071 523.5,20.5 Z"/></g>
<g><path style="opacity:0.955" fill="#000000" d="M 618.5,20.5 C 644.169,20.3334 669.835,20.5 695.5,21C 705.524,22.5472 708.69,28.0472 705,37.5C 697,54.8333 689,72.1667 681,89.5C 677.057,93.2212 672.557,96.0546 667.5,98C 671.128,101.831 672.295,106.331 671,111.5C 665.023,125.102 658.857,138.602 652.5,152C 640.819,152.833 629.152,152.666 617.5,151.5C 625.252,135.164 632.585,118.664 639.5,102C 639.215,100.11 638.215,98.7771 636.5,98C 630.804,97.1701 625.137,97.3368 619.5,98.5C 611.629,116.408 603.629,134.241 595.5,152C 583.838,152.5 572.171,152.667 560.5,152.5C 571.932,124.964 583.932,97.6311 596.5,70.5C 614.491,69.667 632.491,69.167 650.5,69C 653.196,68.3102 655.363,66.8102 657,64.5C 658.978,60.712 660.811,56.8787 662.5,53C 661.449,51.6152 660.116,50.6152 658.5,50C 640.833,49.6667 623.167,49.3333 605.5,49C 609.702,39.4296 614.036,29.9296 618.5,20.5 Z"/></g>
<g><path style="opacity:0.96" fill="#000000" d="M 164.5,69.5 C 190.835,69.3334 217.169,69.5 243.5,70C 239.5,79 235.5,88 231.5,97C 216.592,97.1752 201.759,97.6752 187,98.5C 179.167,116.167 171.333,133.833 163.5,151.5C 151.852,152.499 140.186,152.832 128.5,152.5C 140.109,124.675 152.109,97.0088 164.5,69.5 Z"/></g>
<g><path style="opacity:0.959" fill="#000000" d="M 501.5,69.5 C 527.835,69.3334 554.169,69.5 580.5,70C 576.5,79 572.5,88 568.5,97C 553.592,97.1752 538.759,97.6752 524,98.5C 521.024,105.767 517.857,112.934 514.5,120C 528.829,120.5 543.163,120.667 557.5,120.5C 553.66,131.183 549.327,141.683 544.5,152C 518.169,152.5 491.835,152.667 465.5,152.5C 477.221,124.723 489.221,97.0563 501.5,69.5 Z"/></g>
<g><path style="opacity:0.932" fill="#000000" d="M 799.5,120.5 C 799.5,123.167 799.5,125.833 799.5,128.5C 796.861,133.658 793.195,138.158 788.5,142C 767.878,153.543 745.878,161.543 722.5,166C 673.268,175.862 623.602,182.529 573.5,186C 484.579,192.534 395.579,194.534 306.5,192C 361.568,200.176 416.568,208.676 471.5,217.5C 472.942,214.632 474.275,211.632 475.5,208.5C 506.907,221.244 538.241,234.078 569.5,247C 535.522,248.856 501.522,250.356 467.5,251.5C 467.411,248.291 467.744,245.125 468.5,242C 468.245,240.674 467.578,239.674 466.5,239C 346.692,215.588 226.692,193.254 106.5,172C 83.4354,167.901 60.7688,162.234 38.5,155C 25.1776,150.594 13.3442,143.76 3,134.5C 1.78739,132.075 0.620727,129.741 -0.5,127.5C -0.5,125.5 -0.5,123.5 -0.5,121.5C 1.84275,116.314 5.50941,112.148 10.5,109C 29.1267,99.2344 48.7934,92.2344 69.5,88C 86.1266,83.9516 102.793,81.1183 119.5,79.5C 118.975,80.1924 118.308,80.6924 117.5,81C 87.6728,84.707 58.6728,91.707 30.5,102C 23.7248,104.466 17.8915,108.3 13,113.5C 9.75811,118.052 10.0914,122.385 14,126.5C 22.36,132.764 31.5267,137.598 41.5,141C 59.1946,146.59 77.1946,150.924 95.5,154C 159.76,164.411 224.427,170.744 289.5,173C 397.652,177.584 505.652,175.25 613.5,166C 661.238,162.21 708.238,154.21 754.5,142C 764.839,138.663 774.506,133.997 783.5,128C 788.378,123.743 789.211,118.909 786,113.5C 781.108,108.3 775.275,104.466 768.5,102C 751.337,95.292 733.671,90.292 715.5,87C 714.007,85.8438 714.174,85.0104 716,84.5C 737.112,88.2359 757.612,94.0692 777.5,102C 786.909,105.925 794.242,112.092 799.5,120.5 Z"/></g>
</svg>
